<?xml version="1.0" encoding="UTF-8"?>
<svg id="Layer_2" data-name="Layer 2" xmlns="http://www.w3.org/2000/svg" viewBox="0 0 288.31 61.95">
  <defs>
    <style>
      .cls-1 {
        fill: #313f49;
      }

      .cls-2 {
        fill: #ee6e4f;
      }
    </style>
  </defs>
  <g id="Layer_1-2" data-name="Layer 1">
    <g>
      <path class="cls-2" d="M185.64,49.84c.03.39-.24,1.28-.56,1.48-1,.63-2.98.55-3.57-.02-.33-.32-.52-1.27-.48-1.77l.55-6.23-5.09,3.66c-.37.27-1.29.54-1.7.42-.94-.28-1.82-1.94-1.86-3.19-.02-.47.79-1.11,1.27-1.32l5.65-2.5-5.73-2.93c-.45-.23-1.12-.95-1.18-1.4-.13-1.01,1.18-2.63,2.07-2.88.35-.1,1.11.25,1.43.48l5.17,3.7-.56-6.34c-.04-.49.1-1.46.43-1.76.76-.69,2.47-.73,3.49-.16.37.2.62,1.17.58,1.61l-.5,6.59,5.3-3.7c.85-.6,1.86-.35,2.51.51.34.45.78,1.22.83,1.7.05.51-.65,1.46-1.13,1.71l-5.59,2.85,5.52,2.48c.38.17.97.8,1.11,1.18.5,1.39-1.67,3.93-2.58,3.33l-5.93-3.97.57,6.49Z"/>
      <g>
        <path class="cls-1" d="M228.14,61.92l-6.45.02v-28.09s-.47-5.14-.47-5.14c-.12-1.27-1.29-2.34-2.51-2.64-2.66-.66-5.28.56-6.56,2.98-.86,1.61-1.22,3.47-1.22,5.38v27.49s-6.31,0-6.31,0V21.24s5.8-.07,5.8-.07l.05,5.2c1.77-3.42,4.89-5.97,8.77-6.01s6.98,2.43,7.86,6.44c1.99-4.17,5.77-6.81,10.2-6.41,6.54.6,7.92,6.4,7.93,12.61l.02,28.88-6.38.03-.02-31.48c0-1.59-.71-3.26-2.05-3.96-2.65-1.38-5.84-.29-7.27,2.32-.92,1.67-1.37,3.64-1.37,5.65v27.47Z"/>
        <path class="cls-1" d="M275.52,60.73c-7.83,3.31-16.59-.4-19.87-8.17-5.14-12.17-2.41-30.6,11.54-33.23,5.72-1.08,11.3,1.05,14.54,5.94l.02-22.33,6.55.04v57.77s-6.21.09-6.21.09v-6.25c-1.59,2.78-3.54,4.87-6.58,6.15ZM275.79,55.18c3.82-1.93,5.92-6.02,5.95-10.06l.06-11.01c-.68-3.3-2.09-6.29-5.08-7.97s-7.07-1.9-10.29-.27c-2.8,1.41-4.51,4.09-5.26,7.14-1.73,7-1.09,18.71,5.66,22.02,2.63,1.29,6.17,1.57,8.96.16Z"/>
      </g>
      <g>
        <path class="cls-1" d="M167.53,61.93l-19.74.02c-.12-.49-.12-1.48-.02-1.85l2.4-.83c-2.93-6.26-6.15-11.74-9.89-17.26-.56-.82-1.73-1.05-2.52-.77l.1,14.97c.02,2.4,1.7,3.71,4.06,3.76.54.01.68,1.65.17,1.98h-21.45c-.5,0-.51-1.86-.01-1.93,1.41-.21,2.95-.28,3.83-1.41.8-1.04,1.19-2.59,1.19-4.06l-.05-46.85c0-2.93-2.25-4.69-4.98-4.49-.15-.67-.22-1.29-.22-2.15,5.92.34,11.5.07,17.37-1.03v39.21c1.07-.13,2.49-.3,3.3-.93,3.63-2.87,6.91-5.98,9.6-9.67,1.1-1.51.88-3.78-.69-4.69-1.35-.78-2.8-.91-4.48-1.16-.1-.43-.08-1.38.03-1.88h19.33s.03,1.9.03,1.9c-2.57.46-4.74,1.27-6.74,2.89-3.06,2.48-5.87,5.3-8.41,8.27l9.91,16.62,4.95,7.46c.64.97,1.66,1.42,2.91,1.85v2.02Z"/>
        <path class="cls-1" d="M114.97,49.57c-3.92,11.23-17.08,14.46-27.61,11.14-5.8-1.83-10.15-6.02-11.96-11.82s-1.72-12.45.39-18.44c1.71-4.84,5.14-8.43,9.96-10.32,6.26-2.46,13.28-2.46,19.51.12,4.63,1.92,7.9,5.48,9.56,10.15,2.22,6.23,2.32,12.92.14,19.16ZM102.74,48.38c.9-7.72.78-17.4-2.35-24.32-.92-2.03-2.55-3.34-4.46-3.51-4.58-.41-6.79,3.82-7.68,8.46-1.55,8.07-1.95,21.7,2.5,28.2,1.25,1.83,3.11,2.58,5.23,2.45,4.42-.28,6.23-6.68,6.76-11.28Z"/>
        <path class="cls-1" d="M67.27,48.9c-3.59,12.31-18.14,15.47-28.91,11.3-5.12-1.98-8.88-5.92-10.59-11.12-2.03-6.18-1.86-12.83.41-18.9,1.84-4.89,5.45-8.46,10.32-10.27,5.85-2.17,12.16-2.23,18.03-.11,5.29,1.92,9.05,5.96,10.69,11.35,1.75,5.79,1.75,11.91.05,17.73ZM54.9,48.74c.96-7.47.83-18.62-2.42-25.1-.95-1.9-2.63-3.08-4.49-3.19-4.58-.27-6.8,4.53-7.59,9.18-1.33,7.75-1.58,20.9,2.35,27.26,1.24,2,3.27,2.95,5.54,2.75,4.4-.39,6.01-6.29,6.61-10.9Z"/>
        <path class="cls-1" d="M0,60.47c-.14-.9,3.75-.19,4.75-2.49.53-1.22.79-2.66.79-4.09V11.1c.01-1.57-.11-3.03-.37-4.44-.44-2.34-2.3-3.58-4.82-3.47C.16,2.58.09,1.91.14,1.05c5.89.36,11.29.11,17.46-1.05l.02,54.25c0,1.42.3,2.84.95,3.9.88,1.44,2.6,1.64,4.26,1.82.24.37.29,1.22.16,1.96H.23S0,60.47,0,60.47Z"/>
      </g>
    </g>
  </g>
</svg>