<?xml version="1.0" encoding="UTF-8"?>
<svg id="Layer_2" data-name="Layer 2" xmlns="http://www.w3.org/2000/svg" viewBox="0 0 183.85 183.85">
  <defs>
    <style>
      .cls-1 {
        fill: #f7f3ea;
      }

      .cls-2 {
        fill: #313f49;
      }

      .cls-3 {
        fill: #ee6e4f;
      }
    </style>
  </defs>
  <g id="Layer_1-2" data-name="Layer 1">
    <g>
      <circle class="cls-1" cx="91.93" cy="91.93" r="91.93"/>
      <g>
        <path class="cls-3" d="M130.75,85.77c.2,2.15-.94,3.84-2.86,4.29l-5.17-.07c-.95-.01-2.46-1.54-2.56-2.49-.25-2.51.18-4.75.38-7.19l.82-9.95-12.38,8.73c-.96.68-2.21,1.13-3.33.92-1.02-.19-2.19-1-2.8-2l-2-3.33c-.5-2.39.54-3.98,2.63-4.94l13.76-6.28c-5.14-2.43-10.06-4.47-14.84-7.12-1.49-.83-1.86-2.52-1.42-3.95.73-1.63,1.54-3.25,2.73-4.51,1.36-1.44,3.36-1.35,4.92-.26l12.79,8.98-1.37-15.62c-.18-2.09,1.07-3.77,3.03-4.06h4.22c2.11.01,3.63,1.9,3.44,4.06l-.79,8.9-.59,6.87,12.22-8.78c1.18-.85,3.03-1.46,4.33-.7,1.63.96,2.89,2.72,3.67,4.34s.4,2.97-.61,4.34c-1.75,1.25-3.67,2.21-5.7,3.1l-9.87,4.31,14.02,6.42c2.3,1.05,3.37,3.69,1.98,5.8l-1.91,2.89c-1.31,1.98-3.76,2.05-5.66.69l-12.55-9.06,1.46,15.66Z"/>
        <g>
          <path class="cls-2" d="M107.48,132.93c3.39-5.7,6.01-11.78,7.68-18.37l4.87.04-1.05,32.34H34.13s-.1-3.65-.1-3.65c4.48-.24,9.3-1.5,10.15-5.93.45-2.35.69-4.57.69-7.11V54.1c0-2.53-.29-4.76-.71-7.11-.83-4.63-5.68-5.75-10.31-6.28l-.03-3.78h46.22s.09,3.82.09,3.82c-4.73.51-9.34,1.43-10.44,5.99-.67,2.75-.86,5.43-.86,8.43v78.02c0,2.29.21,4.51,1.37,6.35.97,1.55,3.11,2.14,4.93,2.25,5.5.32,10.81.36,16.31.19l4.3-.46c5.73-.61,8.82-3.71,11.72-8.58Z"/>
          <polygon class="cls-2" points="144.76 118.79 144.85 101.19 140.71 112.33 136.98 112.35 132.65 101.37 132.75 118.79 127.79 118.79 127.77 95.53 134.59 95.45 138.93 106.49 143.07 95.46 150.03 95.47 150.02 118.77 144.76 118.79"/>
          <path class="cls-2" d="M142.84,146c-1.63.51-3.38.92-5.05.92h-10.04s0-23.73,0-23.73c4,.02,7.8-.13,11.57.11,6.85.44,11.21,6.03,10.67,12.63-.37,4.55-2.64,8.38-7.14,10.07ZM143.45,138.51c.72-2.13.77-4.26.19-6.33-.78-2.77-3.19-4.61-6.07-4.64l-4.31-.04v15.07s5.15-.14,5.15-.14c2.35-.06,4.15-1.7,5.04-3.92Z"/>
        </g>
      </g>
    </g>
  </g>
</svg>